# xmcd
# 
# Track frame offsets:
#     150
#     31800
#     48450
#     79125
#     99975
#     117300
#     145425
#     172350
# 
# Disc length: 2522
# 
# Revision: 6
# Processed by: cddbd v1.5.2PL0 Copyright (c) Steve Scherf et al.
# Submitted via: fre:ac v1.1beta1
# 
DISCID=6c09d808
DTITLE=Ibrahim Maalouf - Red and Black Light
DYEAR=2015
DGENRE=Jazz
TTITLE0=Free Spirit
TTITLE1=Essentielles
TTITLE2=Goodnight Kiss
TTITLE3=Elephant's Tooth
TTITLE4=Red and Black Light
TTITLE5=Escape
TTITLE6=Improbable
TTITLE7=Run The World (Girls)
EXTD=YEAR: 2015
EXTT0=
EXTT1=
EXTT2=
EXTT3=
EXTT4=
EXTT5=
EXTT6=
EXTT7=
PLAYORDER=
